<svg width="66" height="66" viewBox="0 0 66 66" fill="none" xmlns="http://www.w3.org/2000/svg">
<rect width="66" height="66" rx="8" fill="#CDF6FF"/>
<path d="M22.7778 26.6861L22.7972 26.6647M30.5556 26.6861L30.575 26.6647M22.7778 34.4639L22.7972 34.4425M30.5556 34.4639L30.575 34.4425M22.7778 42.2417L22.7972 42.2203M30.5556 42.2417L30.575 42.2203M38.3333 50H16.1667C15.8572 50 15.5605 49.8771 15.3417 49.6583C15.1229 49.4395 15 49.1428 15 48.8333V20.0556C15 19.7461 15.1229 19.4494 15.3417 19.2306C15.5605 19.0118 15.8572 18.8889 16.1667 18.8889H26.6667V16.1667C26.6667 15.8572 26.7896 15.5605 27.0084 15.3417C27.2272 15.1229 27.5239 15 27.8333 15H37.1667C37.4761 15 37.7728 15.1229 37.9916 15.3417C38.2104 15.5605 38.3333 15.8572 38.3333 16.1667V26.6667M38.3333 50H48.8333C49.1428 50 49.4395 49.8771 49.6583 49.6583C49.8771 49.4395 50 49.1428 50 48.8333V27.8333C50 27.5239 49.8771 27.2272 49.6583 27.0084C49.4395 26.7896 49.1428 26.6667 48.8333 26.6667H38.3333M38.3333 50V42.2222M38.3333 26.6667V34.4444M38.3333 42.2222V34.4444M38.3333 42.2222H42.2222M38.3333 34.4444H42.2222" stroke="#05B9DE" stroke-width="2.50833" stroke-linecap="round" stroke-linejoin="round"/>
</svg>
