<svg width="66" height="66" viewBox="0 0 66 66" fill="none" xmlns="http://www.w3.org/2000/svg">
<rect width="66" height="66" rx="8" fill="#FFECD7"/>
<path d="M46 50L54.604 41.6567C54.8572 41.4115 54.9997 41.0787 55 40.7316V29.2727C55 28.4047 54.6444 27.5723 54.0115 26.9586C53.3785 26.3448 52.5201 26 51.625 26C50.7299 26 49.8715 26.3448 49.2385 26.9586C48.6056 27.5723 48.25 28.4047 48.25 29.2727V39.0909" stroke="#FFA945" stroke-width="2.50833" stroke-linecap="round" stroke-linejoin="round"/>
<path d="M45.8235 41.2727L47.6909 39.4007C47.789 39.3025 47.8669 39.1859 47.9199 39.0574C47.9729 38.929 48.0001 38.7914 48 38.6524C47.9997 38.4562 47.945 38.2639 47.842 38.0971C47.739 37.9303 47.5917 37.7954 47.4167 37.7076L46.4525 37.2255C45.6357 36.816 44.7111 36.6745 43.8095 36.821C42.908 36.9674 42.0753 37.3944 41.4292 38.0415L39.4813 39.9942C38.6649 40.8123 38.2061 41.9221 38.2059 43.0793V50M19.7059 50L11.3831 41.6567C11.1381 41.4115 11.0003 41.0787 11 40.7316V29.2727C11 28.4047 11.344 27.5723 11.9562 26.9586C12.5685 26.3448 13.3989 26 14.2647 26C15.1306 26 15.961 26.3448 16.5732 26.9586C17.1855 27.5723 17.5294 28.4047 17.5294 29.2727V39.0909" stroke="#FFA945" stroke-width="2.50833" stroke-linecap="round" stroke-linejoin="round"/>
<path d="M20.1818 41.25L18.3098 39.3731C18.2116 39.2746 18.1336 39.1576 18.0805 39.0289C18.0273 38.9001 18 38.7621 18 38.6228C18 38.2225 18.2269 37.8572 18.5847 37.6756L19.5513 37.1922C20.3701 36.7817 21.297 36.6398 22.2008 36.7866C23.1045 36.9335 23.9393 37.3616 24.5869 38.0103L26.5396 39.9681C27.358 40.7884 27.8179 41.901 27.8182 43.0612V50M36.9098 32.5H29.6356V27.3966H24.5455V20.1034H29.6356V15H36.9098V20.1034H42V27.3966H36.9098V32.5Z" stroke="#FFA945" stroke-width="2.50833" stroke-linecap="round" stroke-linejoin="round"/>
</svg>
