<svg width="66" height="66" viewBox="0 0 66 66" fill="none" xmlns="http://www.w3.org/2000/svg">
<rect width="66" height="66" rx="8" fill="#D2FFDC"/>
<path d="M47.1494 29.7368C47.1494 25.8284 45.5968 22.08 42.8331 19.3163C40.0694 16.5526 36.321 15 32.4126 15C28.5041 15 24.7558 16.5526 21.9921 19.3163C19.2284 22.08 17.6758 25.8284 17.6758 29.7368" stroke="#19D078" stroke-width="2.50833" stroke-linecap="round" stroke-linejoin="round"/>
<path d="M47.15 42.6315V43.5525C47.15 44.5296 46.7618 45.4667 46.0709 46.1576C45.38 46.8486 44.4429 47.2367 43.4658 47.2367H37.0184M13.9922 37.912V34.4562C13.9923 33.6347 14.267 32.8367 14.7727 32.1892C15.2784 31.5417 15.9859 31.0818 16.783 30.8825L19.9882 30.0794C20.1511 30.0388 20.3211 30.0359 20.4852 30.0708C20.6494 30.1057 20.8035 30.1776 20.9358 30.2809C21.068 30.3842 21.175 30.5163 21.2486 30.6672C21.3222 30.818 21.3605 30.9836 21.3606 31.1515V41.2149C21.3609 41.3831 21.3228 41.5491 21.2492 41.7004C21.1756 41.8516 21.0684 41.9841 20.9359 42.0877C20.8034 42.1912 20.649 42.2632 20.4844 42.2981C20.3199 42.3329 20.1495 42.3298 19.9864 42.2888L16.7811 41.4875C15.9844 41.2879 15.2773 40.8279 14.772 40.1804C14.2667 39.5329 13.9922 38.7352 13.9922 37.9138V37.912ZM50.8342 37.912V34.4562C50.8341 33.6347 50.5594 32.8367 50.0537 32.1892C49.548 31.5417 48.8405 31.0818 48.0434 30.8825L44.8382 30.0794C44.6753 30.0388 44.5053 30.0359 44.3411 30.0708C44.177 30.1057 44.0229 30.1776 43.8906 30.2809C43.7584 30.3842 43.6514 30.5163 43.5778 30.6672C43.5041 30.818 43.4659 30.9836 43.4658 31.1515V41.2149C43.4656 41.3829 43.5037 41.5487 43.5772 41.6998C43.6506 41.8509 43.7576 41.9832 43.8899 42.0868C44.0222 42.1903 44.1764 42.2623 44.3407 42.2973C44.505 42.3323 44.6751 42.3294 44.8382 42.2888L48.0434 41.4875C48.8405 41.2883 49.548 40.8284 50.0537 40.1809C50.5594 39.5334 50.8341 38.7354 50.8342 37.9138V37.912Z" stroke="#19D078" stroke-width="2.50833"/>
<path d="M35.1762 49.9999H29.6499C28.917 49.9999 28.2142 49.7088 27.696 49.1906C27.1778 48.6724 26.8867 47.9696 26.8867 47.2368C26.8867 46.504 27.1778 45.8011 27.696 45.2829C28.2142 44.7648 28.917 44.4736 29.6499 44.4736H35.1762C35.909 44.4736 36.6118 44.7648 37.13 45.2829C37.6482 45.8011 37.9393 46.504 37.9393 47.2368C37.9393 47.9696 37.6482 48.6724 37.13 49.1906C36.6118 49.7088 35.909 49.9999 35.1762 49.9999Z" stroke="#19D078" stroke-width="2.50833"/>
</svg>
