<svg width="66" height="66" viewBox="0 0 66 66" fill="none" xmlns="http://www.w3.org/2000/svg">
<rect width="66" height="66" rx="8" fill="#FFE9E9"/>
<path d="M15 40.2778V24.7222C15 22.1437 16.0243 19.6708 17.8476 17.8476C19.6708 16.0243 22.1437 15 24.7222 15H40.2778C42.8563 15 45.3292 16.0243 47.1524 17.8476C48.9757 19.6708 50 22.1437 50 24.7222V40.2778C50 42.8563 48.9757 45.3292 47.1524 47.1524C45.3292 48.9757 42.8563 50 40.2778 50H24.7222C22.1437 50 19.6708 48.9757 17.8476 47.1524C16.0243 45.3292 15 42.8563 15 40.2778Z" fill="#FFE9E9" stroke="#FE6A6A" stroke-width="2.50833"/>
<path d="M41.25 37.3611C41.25 37.3611 38.3333 41.25 32.5 41.25C26.6667 41.25 23.75 37.3611 23.75 37.3611" fill="#FFE9E9"/>
<path d="M41.25 37.3611C41.25 37.3611 38.3333 41.25 32.5 41.25C26.6667 41.25 23.75 37.3611 23.75 37.3611" stroke="#FE6A6A" stroke-width="2.50833" stroke-linecap="round" stroke-linejoin="round"/>
<path d="M25.6949 28.6109C25.437 28.6109 25.1897 28.5085 25.0074 28.3262C24.8251 28.1439 24.7227 27.8966 24.7227 27.6387C24.7227 27.3809 24.8251 27.1336 25.0074 26.9513C25.1897 26.7689 25.437 26.6665 25.6949 26.6665C25.9527 26.6665 26.2 26.7689 26.3823 26.9513C26.5647 27.1336 26.6671 27.3809 26.6671 27.6387C26.6671 27.8966 26.5647 28.1439 26.3823 28.3262C26.2 28.5085 25.9527 28.6109 25.6949 28.6109ZM39.306 28.6109C39.0481 28.6109 38.8009 28.5085 38.6185 28.3262C38.4362 28.1439 38.3338 27.8966 38.3338 27.6387C38.3338 27.3809 38.4362 27.1336 38.6185 26.9513C38.8009 26.7689 39.0481 26.6665 39.306 26.6665C39.5638 26.6665 39.8111 26.7689 39.9935 26.9513C40.1758 27.1336 40.2782 27.3809 40.2782 27.6387C40.2782 27.8966 40.1758 28.1439 39.9935 28.3262C39.8111 28.5085 39.5638 28.6109 39.306 28.6109Z" fill="#FFE9E9" stroke="#FE6A6A" stroke-width="2.50833" stroke-linecap="round" stroke-linejoin="round"/>
</svg>
