<svg width="66" height="66" viewBox="0 0 66 66" fill="none" xmlns="http://www.w3.org/2000/svg">
<rect width="66" height="66" rx="8" fill="#FFECD7"/>
<path d="M45 38.1478V42.6661C45 43.337 44.4813 43.8936 43.8123 43.9408C43.2534 43.9803 42.7975 44 42.4444 44C31.1532 44 22 34.8468 22 23.5556C22 23.2025 22.0197 22.7466 22.0592 22.1877C22.1065 21.5186 22.6631 21 23.3338 21H27.8524C28.1803 21 28.455 21.2484 28.488 21.5747C28.5175 21.8677 28.545 22.1029 28.5704 22.2804C28.8289 24.0855 29.3568 25.8036 30.1122 27.3928C30.2335 27.6478 30.1544 27.9531 29.9246 28.1173L27.1668 30.0873C28.8457 34.0092 31.9908 37.1543 35.9127 38.8333L37.8791 36.0802C38.0453 35.8476 38.3543 35.7677 38.6124 35.8902C40.2014 36.645 41.9194 37.1723 43.7243 37.4302C43.9006 37.4555 44.1343 37.4827 44.4253 37.5121C44.7516 37.545 45 37.8198 45 38.1478Z" fill="#FFA945"/>
</svg>
