<svg width="23" height="28" viewBox="0 0 23 28" fill="none" xmlns="http://www.w3.org/2000/svg">
<path d="M21.2 11.6C21.2 16.9016 11.6 26 11.6 26C11.6 26 2 16.9016 2 11.6C2 9.05392 3.01143 6.61212 4.81178 4.81178C6.61212 3.01143 9.05392 2 11.6 2C14.1461 2 16.5879 3.01143 18.3882 4.81178C20.1886 6.61212 21.2 9.05392 21.2 11.6Z" stroke="#052E73" stroke-width="2.50833"/>
<path d="M11.6004 12.8C11.9187 12.8 12.2239 12.6735 12.4489 12.4485C12.674 12.2234 12.8004 11.9182 12.8004 11.6C12.8004 11.2817 12.674 10.9765 12.4489 10.7514C12.2239 10.5264 11.9187 10.4 11.6004 10.4C11.2821 10.4 10.9769 10.5264 10.7519 10.7514C10.5268 10.9765 10.4004 11.2817 10.4004 11.6C10.4004 11.9182 10.5268 12.2234 10.7519 12.4485C10.9769 12.6735 11.2821 12.8 11.6004 12.8Z" stroke="#05B9DE" stroke-width="2.50833" stroke-linecap="round" stroke-linejoin="round"/>
</svg>
