<svg width="26" height="25" viewBox="0 0 26 25" fill="none" xmlns="http://www.w3.org/2000/svg">
<path d="M24 23H9.87674M17.9847 15.939L9.2459 7.35595M2.68918 13.3006L13.5088 2.67672C13.9502 2.24342 14.5488 2 15.173 2C15.7971 2 16.3957 2.24342 16.8372 2.67672L22.663 8.39719C23.1043 8.83062 23.3522 9.41841 23.3522 10.0313C23.3522 10.6442 23.1043 11.2319 22.663 11.6654L11.7846 22.3471C11.3588 22.7651 10.7813 23 10.1792 23C9.5771 23 8.99964 22.7651 8.57387 22.3471L2.68918 16.5688C2.2479 16.1354 2 15.5476 2 14.9347C2 14.3218 2.2479 13.7341 2.68918 13.3006Z" stroke="#052E73" stroke-width="2.50833" stroke-linecap="round" stroke-linejoin="round"/>
<path d="M13 16L9 12L6.5 14.5L10.5 18.5L13 16Z" fill="#05B9DE"/>
</svg>
