<svg width="25" height="25" viewBox="0 0 25 25" fill="none" xmlns="http://www.w3.org/2000/svg">
<path d="M8 8L12.0526 12.5L8 17M14.9474 8L19 12.5L14.9474 17" stroke="#05B9DE" stroke-width="2.50833" stroke-linecap="round" stroke-linejoin="round"/>
<path d="M2 22.3V2.7C2 2.51435 2.07375 2.3363 2.20503 2.20503C2.3363 2.07375 2.51435 2 2.7 2H22.3C22.4857 2 22.6637 2.07375 22.795 2.20503C22.9263 2.3363 23 2.51435 23 2.7V22.3C23 22.4857 22.9263 22.6637 22.795 22.795C22.6637 22.9263 22.4857 23 22.3 23H2.7C2.51435 23 2.3363 22.9263 2.20503 22.795C2.07375 22.6637 2 22.4857 2 22.3Z" stroke="#052E73" stroke-width="2.50833"/>
</svg>
